<mxfile host="app.diagrams.net" agent="Mozilla/5.0 (Windows NT 10.0; Win64; x64) AppleWebKit/537.36 (KHTML, like Gecko) Chrome/129.0.0.0 Safari/537.36" version="24.7.14">
  <diagram id="C5RBs43oDa-KdzZeNtuy" name="Page-1">
    <mxGraphModel dx="1295" dy="738" grid="1" gridSize="10" guides="1" tooltips="1" connect="1" arrows="1" fold="1" page="1" pageScale="1" pageWidth="827" pageHeight="1169" math="0" shadow="0">
      <root>
        <mxCell id="WIyWlLk6GJQsqaUBKTNV-0" />
        <mxCell id="WIyWlLk6GJQsqaUBKTNV-1" parent="WIyWlLk6GJQsqaUBKTNV-0" />
        <mxCell id="4aojZ9jgp5N0Gy9sEuXH-7" style="edgeStyle=orthogonalEdgeStyle;rounded=0;orthogonalLoop=1;jettySize=auto;html=1;exitX=0.5;exitY=1;exitDx=0;exitDy=0;entryX=0.5;entryY=0;entryDx=0;entryDy=0;" edge="1" parent="WIyWlLk6GJQsqaUBKTNV-1" source="4aojZ9jgp5N0Gy9sEuXH-0" target="4aojZ9jgp5N0Gy9sEuXH-1">
          <mxGeometry relative="1" as="geometry" />
        </mxCell>
        <mxCell id="4aojZ9jgp5N0Gy9sEuXH-0" value="get User Unique ID" style="rounded=0;whiteSpace=wrap;html=1;" vertex="1" parent="WIyWlLk6GJQsqaUBKTNV-1">
          <mxGeometry x="400" y="60" width="120" height="60" as="geometry" />
        </mxCell>
        <mxCell id="4aojZ9jgp5N0Gy9sEuXH-8" style="edgeStyle=orthogonalEdgeStyle;rounded=0;orthogonalLoop=1;jettySize=auto;html=1;exitX=0.5;exitY=1;exitDx=0;exitDy=0;" edge="1" parent="WIyWlLk6GJQsqaUBKTNV-1" source="4aojZ9jgp5N0Gy9sEuXH-1" target="4aojZ9jgp5N0Gy9sEuXH-2">
          <mxGeometry relative="1" as="geometry" />
        </mxCell>
        <mxCell id="4aojZ9jgp5N0Gy9sEuXH-1" value="get purchase history, rating, and any criteria from database with ID" style="rounded=0;whiteSpace=wrap;html=1;" vertex="1" parent="WIyWlLk6GJQsqaUBKTNV-1">
          <mxGeometry x="400" y="160" width="120" height="60" as="geometry" />
        </mxCell>
        <mxCell id="4aojZ9jgp5N0Gy9sEuXH-9" style="edgeStyle=orthogonalEdgeStyle;rounded=0;orthogonalLoop=1;jettySize=auto;html=1;exitX=0.5;exitY=1;exitDx=0;exitDy=0;entryX=0.5;entryY=0;entryDx=0;entryDy=0;" edge="1" parent="WIyWlLk6GJQsqaUBKTNV-1" source="4aojZ9jgp5N0Gy9sEuXH-2" target="4aojZ9jgp5N0Gy9sEuXH-3">
          <mxGeometry relative="1" as="geometry" />
        </mxCell>
        <mxCell id="4aojZ9jgp5N0Gy9sEuXH-2" value="get full product list with API" style="rounded=0;whiteSpace=wrap;html=1;" vertex="1" parent="WIyWlLk6GJQsqaUBKTNV-1">
          <mxGeometry x="400" y="260" width="120" height="60" as="geometry" />
        </mxCell>
        <mxCell id="4aojZ9jgp5N0Gy9sEuXH-10" style="edgeStyle=orthogonalEdgeStyle;rounded=0;orthogonalLoop=1;jettySize=auto;html=1;exitX=0.5;exitY=1;exitDx=0;exitDy=0;entryX=0.5;entryY=0;entryDx=0;entryDy=0;" edge="1" parent="WIyWlLk6GJQsqaUBKTNV-1" source="4aojZ9jgp5N0Gy9sEuXH-3" target="4aojZ9jgp5N0Gy9sEuXH-4">
          <mxGeometry relative="1" as="geometry" />
        </mxCell>
        <mxCell id="4aojZ9jgp5N0Gy9sEuXH-3" value="send history and full product list to LLM" style="rounded=0;whiteSpace=wrap;html=1;" vertex="1" parent="WIyWlLk6GJQsqaUBKTNV-1">
          <mxGeometry x="400" y="360" width="120" height="60" as="geometry" />
        </mxCell>
        <mxCell id="4aojZ9jgp5N0Gy9sEuXH-11" style="edgeStyle=orthogonalEdgeStyle;rounded=0;orthogonalLoop=1;jettySize=auto;html=1;exitX=0.5;exitY=1;exitDx=0;exitDy=0;entryX=0.5;entryY=0;entryDx=0;entryDy=0;" edge="1" parent="WIyWlLk6GJQsqaUBKTNV-1" source="4aojZ9jgp5N0Gy9sEuXH-4" target="4aojZ9jgp5N0Gy9sEuXH-5">
          <mxGeometry relative="1" as="geometry" />
        </mxCell>
        <mxCell id="4aojZ9jgp5N0Gy9sEuXH-4" value="send customize system prompt to LLM" style="rounded=0;whiteSpace=wrap;html=1;" vertex="1" parent="WIyWlLk6GJQsqaUBKTNV-1">
          <mxGeometry x="400" y="460" width="120" height="60" as="geometry" />
        </mxCell>
        <mxCell id="4aojZ9jgp5N0Gy9sEuXH-12" style="edgeStyle=orthogonalEdgeStyle;rounded=0;orthogonalLoop=1;jettySize=auto;html=1;exitX=0.5;exitY=1;exitDx=0;exitDy=0;entryX=0.5;entryY=0;entryDx=0;entryDy=0;" edge="1" parent="WIyWlLk6GJQsqaUBKTNV-1" source="4aojZ9jgp5N0Gy9sEuXH-5" target="4aojZ9jgp5N0Gy9sEuXH-6">
          <mxGeometry relative="1" as="geometry" />
        </mxCell>
        <mxCell id="4aojZ9jgp5N0Gy9sEuXH-5" value="LLM return recommended product details" style="rounded=0;whiteSpace=wrap;html=1;" vertex="1" parent="WIyWlLk6GJQsqaUBKTNV-1">
          <mxGeometry x="400" y="560" width="120" height="60" as="geometry" />
        </mxCell>
        <mxCell id="4aojZ9jgp5N0Gy9sEuXH-6" value="get product detail to generate product card and send to the chatbot or notification" style="rounded=0;whiteSpace=wrap;html=1;" vertex="1" parent="WIyWlLk6GJQsqaUBKTNV-1">
          <mxGeometry x="400" y="660" width="120" height="60" as="geometry" />
        </mxCell>
      </root>
    </mxGraphModel>
  </diagram>
</mxfile>
